<svg xmlns="http://www.w3.org/2000/svg" width="24" height="24" viewBox="0 0 24 24" fill="none">
  <path d="M4 8.5C4 7.11929 5.11929 6 6.5 6H17.5C18.8807 6 20 7.11929 20 8.5V10.2C18.8954 10.2 18 11.0954 18 12.2C18 13.3046 18.8954 14.2 20 14.2V15.5C20 16.8807 18.8807 18 17.5 18H6.5C5.11929 18 4 16.8807 4 15.5V14.2C5.10457 14.2 6 13.3046 6 12.2C6 11.0954 5.10457 10.2 4 10.2V8.5Z" stroke="#4C5C70" stroke-width="1.6"/>
  <path d="M10 9.4V14.6" stroke="#4C5C70" stroke-width="1.6" stroke-linecap="round" stroke-dasharray="1.8 2.2"/>
</svg>
